# xmcd CD database file
#
# Track frame offsets:
#	150
#	75057
#	90970
#	165312
#	186310
#	248240
#	267162
#	273705
#	280442
#	286440
#	296107
#	302995
#	311587
#
# Disc length: 4423 seconds
#
# Revision: 0
# Processed by: cddbd v1.5.1PL2 Copyright (c) Steve Scherf et al.
# Submitted via: CDex 1.51
#
DISCID=b911450d
DTITLE=めろ＠ドラマCD まんすりぃ 萌音 - chapter3 〜ハロー!ハロウィン!!〜
DYEAR=2006
DGENRE=Anime
TTITLE0=第16話 「Bitter Sweet Memories」
TTITLE1=後藤沙緒里 - バレンタイン・キッス
TTITLE2=第17話 「はっぴぃ　バレンタイン」
TTITLE3=あこ - M
TTITLE4=第18話 「チョコレート殺人事件！？」
TTITLE5=白石涼子＆三宅淳一 - 世界中の誰よりきっと
TTITLE6=着萌@萌 File 6
TTITLE7=着萌@小枝 File 6
TTITLE8=着萌@輝子 File 2
TTITLE9=着萌@利子 File 1
TTITLE10=着萌@友萌 File 6
TTITLE11=着めろ@めどれー バレンタイン・キッス〜M〜世界中の誰よりきっと
TTITLE12=外伝 「いっつ　あ　おべんとうたーいむ」
EXTD=YEAR: 2006
EXTT0=
EXTT1=
EXTT2=
EXTT3=
EXTT4=
EXTT5=
EXTT6=
EXTT7=
EXTT8=
EXTT9=
EXTT10=
EXTT11=
EXTT12=
PLAYORDER=
